<?xml version="1.0" standalone="no"?>
<svg xmlns="http://www.w3.org/2000/svg" viewBox="0 0 244.296 36" width="244.296" height="36"><g fill="#4ad0ff" color="#4ad0ff" transform="translate(0 4) scale(0.5833334)"><svg width="48.0" height="48.0" x="0.0" y="0.0" viewBox="0 0 48 48"><path fill="currentColor" fill-rule="evenodd" d="M28 24a4 4 0 1 1-8 0 4 4 0 0 1 8 0M26 0c12.318 1.024 22 11.367 22 24 0 12.505-9.489 22.772-21.631 23.967l-.37.033v-4.018C36.11 42.974 44 34.412 44 24c0-10.296-7.71-18.782-17.655-19.948L26 4.015V0zm-4 0v4.015C11.894 5.023 4 13.586 4 24c0 10.294 7.716 18.78 17.657 19.945l.343.037V48C9.684 46.979 0 36.631 0 24 0 11.367 9.684 1.024 22 0zm-9.82 26c.953 5.672 5.874 10 11.82 10 5.946 0 10.867-4.328 11.82-10h4.041c-.984 7.89-7.7 14-15.861 14-8.156 0-14.876-6.11-15.861-14zM24 16a8 8 0 0 1 8 8 8 8 0 1 1-8-8zm0-8c8.047 0 14.69 5.941 15.816 13.672l.045.328h-4.04c-.954-5.674-5.875-10-11.82-10-5.844 0-10.698 4.178-11.768 9.708L12.18 22H8.14C9.125 14.11 15.844 8 24 8z"></path></svg></g><path fill="#0019ff" fill-rule="nonzero" d="M5.64 16.82L0.02 16.82L0.02 16.58L0.31 16.49Q1.18 16.20 1.18 15.29L1.18 15.29L1.18 2.47Q1.18 1.97 1.01 1.73Q0.84 1.49 0.36 1.37L0.36 1.37L0 1.27L0 1.03L4.22 0L4.61 0.22L4.51 3.60L4.51 6.60Q5.35 5.90 6.32 5.41Q7.30 4.92 8.47 4.92L8.47 4.92Q10.03 4.92 10.96 5.81Q11.88 6.70 11.88 8.54L11.88 8.54L11.88 15.31Q11.88 15.79 12.07 16.08Q12.26 16.37 12.74 16.51L12.74 16.51L12.94 16.58L12.94 16.82L7.32 16.82L7.32 16.58L7.61 16.51Q8.47 16.22 8.47 15.29L8.47 15.29L8.47 7.75Q8.47 6.79 8.15 6.43Q7.82 6.07 7.01 6.07L7.01 6.07Q6.48 6.07 5.86 6.28Q5.23 6.48 4.58 6.98L4.58 6.98L4.58 15.34Q4.58 16.27 5.45 16.54L5.45 16.54L5.64 16.58L5.64 16.82ZM17.38 17.18L17.38 17.18Q15.98 17.18 15.04 16.39Q14.09 15.60 14.09 14.11L14.09 14.11Q14.09 12.98 15.24 12.04Q16.39 11.09 18.86 10.61L18.86 10.61Q19.25 10.54 19.73 10.45Q20.21 10.37 20.74 10.27L20.74 10.27L20.74 8.38Q20.74 6.74 20.34 6.08Q19.94 5.42 19.10 5.42L19.10 5.42Q18.53 5.42 18.19 5.80Q17.86 6.17 17.76 7.08L17.76 7.08L17.71 7.34Q17.66 8.38 17.21 8.86Q16.75 9.34 16.08 9.34L16.08 9.34Q15.46 9.34 15.05 8.95Q14.64 8.57 14.64 7.92L14.64 7.92Q14.64 6.94 15.32 6.26Q16.01 5.59 17.14 5.26Q18.26 4.92 19.58 4.92L19.58 4.92Q21.72 4.92 22.88 5.96Q24.05 7.01 24.05 9.36L24.05 9.36L24.05 14.66Q24.05 15.74 25.06 15.74L25.06 15.74L25.58 15.74L25.80 15.94Q25.34 16.51 24.80 16.82Q24.26 17.14 23.28 17.14L23.28 17.14Q22.22 17.14 21.61 16.64Q21 16.15 20.81 15.34L20.81 15.34Q20.09 16.10 19.33 16.64Q18.58 17.18 17.38 17.18ZM18.84 15.72L18.84 15.72Q19.32 15.72 19.74 15.49Q20.16 15.26 20.74 14.78L20.74 14.78L20.74 10.75Q20.50 10.80 20.26 10.85Q20.02 10.90 19.70 10.94L19.70 10.94Q18.60 11.23 17.94 11.92Q17.28 12.60 17.28 13.75L17.28 13.75Q17.28 14.74 17.74 15.23Q18.19 15.72 18.84 15.72ZM31.94 16.82L26.30 16.82L26.30 16.58L26.64 16.49Q27.10 16.37 27.28 16.08Q27.46 15.79 27.48 15.31L27.48 15.31L27.48 7.80Q27.48 7.27 27.31 7.02Q27.14 6.77 26.66 6.67L26.66 6.67L26.30 6.58L26.30 6.34L30.41 4.94L30.65 5.18L30.84 6.82Q31.63 6.02 32.65 5.47Q33.67 4.92 34.78 4.92L34.78 4.92Q35.93 4.92 36.62 5.39Q37.32 5.86 37.68 6.84L37.68 6.84Q38.62 5.95 39.71 5.44Q40.80 4.92 41.83 4.92L41.83 4.92Q43.54 4.92 44.34 5.74Q45.14 6.55 45.14 8.30L45.14 8.30L45.14 15.34Q45.14 16.27 46.01 16.51L46.01 16.51L46.27 16.58L46.27 16.82L40.73 16.82L40.73 16.58L40.97 16.51Q41.42 16.37 41.60 16.08Q41.78 15.79 41.78 15.31L41.78 15.31L41.78 7.97Q41.78 6.96 41.42 6.59Q41.06 6.22 40.27 6.22L40.27 6.22Q39.65 6.22 39.06 6.49Q38.47 6.77 37.82 7.32L37.82 7.32Q37.94 7.70 37.98 8.16Q38.02 8.62 38.02 9.12L38.02 9.12L38.02 15.34Q38.04 16.27 38.88 16.51L38.88 16.51L39.10 16.58L39.10 16.82L33.53 16.82L33.53 16.58L33.86 16.49Q34.32 16.34 34.50 16.07Q34.68 15.79 34.68 15.31L34.68 15.31L34.68 7.99Q34.68 7.03 34.33 6.62Q33.98 6.22 33.14 6.22L33.14 6.22Q32.59 6.22 32.04 6.49Q31.49 6.77 30.89 7.30L30.89 7.30L30.89 15.34Q30.89 16.27 31.73 16.51L31.73 16.51L31.94 16.58L31.94 16.82ZM52.85 16.82L47.21 16.82L47.21 16.58L47.54 16.49Q48.38 16.25 48.38 15.31L48.38 15.31L48.38 7.80Q48.38 7.27 48.22 7.02Q48.05 6.77 47.57 6.67L47.57 6.67L47.21 6.58L47.21 6.34L51.31 4.94L51.55 5.18L51.74 6.62Q52.58 5.88 53.64 5.40Q54.70 4.92 55.73 4.92L55.73 4.92Q57.31 4.92 58.16 5.78Q59.02 6.65 59.02 8.42L59.02 8.42L59.02 15.34Q59.02 16.27 59.93 16.51L59.93 16.51L60.14 16.58L60.14 16.82L54.48 16.82L54.48 16.58L54.79 16.49Q55.63 16.22 55.63 15.31L55.63 15.31L55.63 7.66Q55.63 6.12 54.10 6.12L54.10 6.12Q53.04 6.12 51.79 7.18L51.79 7.18L51.79 15.34Q51.79 16.27 52.63 16.51L52.63 16.51L52.85 16.58L52.85 16.82ZM64.58 17.18L64.58 17.18Q63.19 17.18 62.24 16.39Q61.30 15.60 61.30 14.11L61.30 14.11Q61.30 12.98 62.45 12.04Q63.60 11.09 66.07 10.61L66.07 10.61Q66.46 10.54 66.94 10.45Q67.42 10.37 67.94 10.27L67.94 10.27L67.94 8.38Q67.94 6.74 67.55 6.08Q67.15 5.42 66.31 5.42L66.31 5.42Q65.74 5.42 65.40 5.80Q65.06 6.17 64.97 7.08L64.97 7.08L64.92 7.34Q64.87 8.38 64.42 8.86Q63.96 9.34 63.29 9.34L63.29 9.34Q62.66 9.34 62.26 8.95Q61.85 8.57 61.85 7.92L61.85 7.92Q61.85 6.94 62.53 6.26Q63.22 5.59 64.34 5.26Q65.47 4.92 66.79 4.92L66.79 4.92Q68.93 4.92 70.09 5.96Q71.26 7.01 71.26 9.36L71.26 9.36L71.26 14.66Q71.26 15.74 72.26 15.74L72.26 15.74L72.79 15.74L73.01 15.94Q72.55 16.51 72.01 16.82Q71.47 17.14 70.49 17.14L70.49 17.14Q69.43 17.14 68.82 16.64Q68.21 16.15 68.02 15.34L68.02 15.34Q67.30 16.10 66.54 16.64Q65.78 17.18 64.58 17.18ZM66.05 15.72L66.05 15.72Q66.53 15.72 66.95 15.49Q67.37 15.26 67.94 14.78L67.94 14.78L67.94 10.75Q67.70 10.80 67.46 10.85Q67.22 10.90 66.91 10.94L66.91 10.94Q65.81 11.23 65.15 11.92Q64.49 12.60 64.49 13.75L64.49 13.75Q64.49 14.74 64.94 15.23Q65.40 15.72 66.05 15.72ZM80.28 16.90L78.89 16.90L74.64 6.70Q74.30 5.88 73.49 5.62L73.49 5.62L73.15 5.52L73.15 5.28L79.37 5.28L79.37 5.52L78.94 5.62Q78 5.86 78.36 6.86L78.36 6.86L80.88 13.56L83.23 6.91Q83.42 6.43 83.33 6.12Q83.23 5.81 82.75 5.66L82.75 5.66L82.15 5.52L82.15 5.28L85.63 5.28L85.63 5.52L84.94 5.69Q84.48 5.81 84.23 6.05Q83.98 6.29 83.81 6.77L83.81 6.77L80.28 16.90ZM92.30 17.18L92.30 17.18Q90.48 17.18 89.14 16.43Q87.79 15.67 87.06 14.28Q86.33 12.89 86.33 11.02L86.33 11.02Q86.33 9.14 87.11 7.78Q87.89 6.41 89.24 5.66Q90.60 4.92 92.30 4.92L92.30 4.92Q94.01 4.92 95.35 5.65Q96.70 6.38 97.48 7.75Q98.26 9.12 98.26 11.02L98.26 11.02Q98.26 12.91 97.52 14.29Q96.79 15.67 95.46 16.43Q94.13 17.18 92.30 17.18ZM92.30 16.70L92.30 16.70Q93.14 16.70 93.65 16.22Q94.15 15.74 94.38 14.52Q94.61 13.30 94.61 11.06L94.61 11.06Q94.61 8.81 94.38 7.58Q94.15 6.36 93.65 5.88Q93.14 5.40 92.30 5.40L92.30 5.40Q91.46 5.40 90.95 5.88Q90.43 6.36 90.20 7.58Q89.98 8.81 89.98 11.06L89.98 11.06Q89.98 13.30 90.20 14.52Q90.43 15.74 90.95 16.22Q91.46 16.70 92.30 16.70ZM105.34 4.92L105.34 4.92Q106.90 4.92 108 5.56Q109.10 6.19 109.69 7.28Q110.28 8.38 110.28 9.77L110.28 9.77Q110.28 10.03 110.26 10.31Q110.23 10.58 110.16 10.80L110.16 10.80L103.01 10.80Q103.03 13.39 103.93 14.53Q104.83 15.67 106.61 15.67L106.61 15.67Q107.81 15.67 108.55 15.29Q109.30 14.90 109.94 14.16L109.94 14.16L110.18 14.38Q109.44 15.70 108.20 16.44Q106.97 17.18 105.24 17.18L105.24 17.18Q103.54 17.18 102.22 16.45Q100.90 15.72 100.15 14.35Q99.41 12.98 99.41 11.09L99.41 11.09Q99.41 9.12 100.27 7.74Q101.14 6.36 102.49 5.64Q103.85 4.92 105.34 4.92ZM105.26 5.40L105.26 5.40Q104.57 5.40 104.08 5.82Q103.58 6.24 103.31 7.31Q103.03 8.38 103.01 10.32L103.01 10.32L107.11 10.32Q107.35 7.70 106.92 6.55Q106.49 5.40 105.26 5.40ZM122.54 22.34L116.71 22.34L116.71 22.10L117 22.01Q117.89 21.77 117.89 20.86L117.89 20.86L117.89 7.80Q117.89 7.27 117.71 7.01Q117.53 6.74 117.05 6.65L117.05 6.65L116.71 6.58L116.71 6.34L120.79 4.94L121.03 5.18L121.25 5.93Q122.04 5.45 123.01 5.18Q123.98 4.92 125.02 4.92L125.02 4.92Q127.08 4.92 128.29 6.49Q129.50 8.06 129.50 10.99L129.50 10.99Q129.50 13.87 128.17 15.53Q126.84 17.18 124.42 17.18L124.42 17.18Q122.52 17.18 121.22 16.63L121.22 16.63L121.22 20.78Q121.22 21.74 122.09 21.98L122.09 21.98L122.54 22.10L122.54 22.34ZM123.26 16.49L123.26 16.49Q124.46 16.49 125.17 15.24Q125.88 13.99 125.88 11.09L125.88 11.09Q125.88 8.18 125.21 7.02Q124.54 5.86 123.26 5.86L123.26 5.86Q122.38 5.86 121.30 6.43L121.30 6.43L121.30 16.10Q122.21 16.49 123.26 16.49ZM134.09 17.18L134.09 17.18Q132.70 17.18 131.75 16.39Q130.80 15.60 130.80 14.11L130.80 14.11Q130.80 12.98 131.95 12.04Q133.10 11.09 135.58 10.61L135.58 10.61Q135.96 10.54 136.44 10.45Q136.92 10.37 137.45 10.27L137.45 10.27L137.45 8.38Q137.45 6.74 137.05 6.08Q136.66 5.42 135.82 5.42L135.82 5.42Q135.24 5.42 134.90 5.80Q134.57 6.17 134.47 7.08L134.47 7.08L134.42 7.34Q134.38 8.38 133.92 8.86Q133.46 9.34 132.79 9.34L132.79 9.34Q132.17 9.34 131.76 8.95Q131.35 8.57 131.35 7.92L131.35 7.92Q131.35 6.94 132.04 6.26Q132.72 5.59 133.85 5.26Q134.98 4.92 136.30 4.92L136.30 4.92Q138.43 4.92 139.60 5.96Q140.76 7.01 140.76 9.36L140.76 9.36L140.76 14.66Q140.76 15.74 141.77 15.74L141.77 15.74L142.30 15.74L142.51 15.94Q142.06 16.51 141.52 16.82Q140.98 17.14 139.99 17.14L139.99 17.14Q138.94 17.14 138.32 16.64Q137.71 16.15 137.52 15.34L137.52 15.34Q136.80 16.10 136.04 16.64Q135.29 17.18 134.09 17.18ZM135.55 15.72L135.55 15.72Q136.03 15.72 136.45 15.49Q136.87 15.26 137.45 14.78L137.45 14.78L137.45 10.75Q137.21 10.80 136.97 10.85Q136.73 10.90 136.42 10.94L136.42 10.94Q135.31 11.23 134.65 11.92Q133.99 12.60 133.99 13.75L133.99 13.75Q133.99 14.74 134.45 15.23Q134.90 15.72 135.55 15.72ZM149.23 16.82L143.02 16.82L143.02 16.58L143.38 16.49Q143.86 16.34 144.04 16.06Q144.22 15.77 144.22 15.31L144.22 15.31L144.22 7.80Q144.22 7.27 144.04 7.02Q143.86 6.77 143.38 6.67L143.38 6.67L143.02 6.58L143.02 6.34L147.14 4.94L147.38 5.18L147.60 7.25L147.60 7.44Q147.94 6.77 148.48 6.20Q149.02 5.64 149.68 5.28Q150.34 4.92 150.98 4.92L150.98 4.92Q151.90 4.92 152.38 5.42Q152.86 5.93 152.86 6.70L152.86 6.70Q152.86 7.51 152.39 7.96Q151.92 8.40 151.27 8.40L151.27 8.40Q150.26 8.40 149.50 7.39L149.50 7.39L149.45 7.34Q149.21 7.01 148.90 6.97Q148.58 6.94 148.32 7.27L148.32 7.27Q148.08 7.49 147.92 7.79Q147.77 8.09 147.62 8.47L147.62 8.47L147.62 15.17Q147.62 16.13 148.46 16.37L148.46 16.37L149.23 16.58L149.23 16.82ZM158.16 17.18L158.16 17.18Q156.62 17.18 155.77 16.42Q154.92 15.65 154.92 13.97L154.92 13.97L154.92 5.76L153.26 5.76L153.26 5.52L153.84 5.42Q154.58 5.26 155.12 4.94Q155.66 4.63 156.19 4.10L156.19 4.10L158.16 1.92L158.40 1.92L158.33 5.28L161.02 5.28L161.02 5.76L158.30 5.76L158.30 14.40Q158.30 15.24 158.68 15.67Q159.05 16.10 159.62 16.10L159.62 16.10Q160.13 16.10 160.51 15.85Q160.90 15.60 161.28 15.17L161.28 15.17L161.52 15.41Q161.04 16.22 160.20 16.70Q159.36 17.18 158.16 17.18ZM167.90 16.82L162.26 16.82L162.26 16.58L162.60 16.49Q163.44 16.25 163.44 15.31L163.44 15.31L163.44 7.80Q163.44 7.27 163.27 7.02Q163.10 6.77 162.62 6.67L162.62 6.67L162.26 6.58L162.26 6.34L166.37 4.94L166.61 5.18L166.80 6.62Q167.64 5.88 168.70 5.40Q169.75 4.92 170.78 4.92L170.78 4.92Q172.37 4.92 173.22 5.78Q174.07 6.65 174.07 8.42L174.07 8.42L174.07 15.34Q174.07 16.27 174.98 16.51L174.98 16.51L175.20 16.58L175.20 16.82L169.54 16.82L169.54 16.58L169.85 16.49Q170.69 16.22 170.69 15.31L170.69 15.31L170.69 7.66Q170.69 6.12 169.15 6.12L169.15 6.12Q168.10 6.12 166.85 7.18L166.85 7.18L166.85 15.34Q166.85 16.27 167.69 16.51L167.69 16.51L167.90 16.58L167.90 16.82ZM182.16 4.92L182.16 4.92Q183.72 4.92 184.82 5.56Q185.93 6.19 186.52 7.28Q187.10 8.38 187.10 9.77L187.10 9.77Q187.10 10.03 187.08 10.31Q187.06 10.58 186.98 10.80L186.98 10.80L179.83 10.80Q179.86 13.39 180.76 14.53Q181.66 15.67 183.43 15.67L183.43 15.67Q184.63 15.67 185.38 15.29Q186.12 14.90 186.77 14.16L186.77 14.16L187.01 14.38Q186.26 15.70 185.03 16.44Q183.79 17.18 182.06 17.18L182.06 17.18Q180.36 17.18 179.04 16.45Q177.72 15.72 176.98 14.35Q176.23 12.98 176.23 11.09L176.23 11.09Q176.23 9.12 177.10 7.74Q177.96 6.36 179.32 5.64Q180.67 4.92 182.16 4.92ZM182.09 5.40L182.09 5.40Q181.39 5.40 180.90 5.82Q180.41 6.24 180.13 7.31Q179.86 8.38 179.83 10.32L179.83 10.32L183.94 10.32Q184.18 7.70 183.74 6.55Q183.31 5.40 182.09 5.40ZM194.52 16.82L188.30 16.82L188.30 16.58L188.66 16.49Q189.14 16.34 189.32 16.06Q189.50 15.77 189.50 15.31L189.50 15.31L189.50 7.80Q189.50 7.27 189.32 7.02Q189.14 6.77 188.66 6.67L188.66 6.67L188.30 6.58L188.30 6.34L192.43 4.94L192.67 5.18L192.89 7.25L192.89 7.44Q193.22 6.77 193.76 6.20Q194.30 5.64 194.96 5.28Q195.62 4.92 196.27 4.92L196.27 4.92Q197.18 4.92 197.66 5.42Q198.14 5.93 198.14 6.70L198.14 6.70Q198.14 7.51 197.68 7.96Q197.21 8.40 196.56 8.40L196.56 8.40Q195.55 8.40 194.78 7.39L194.78 7.39L194.74 7.34Q194.50 7.01 194.18 6.97Q193.87 6.94 193.61 7.27L193.61 7.27Q193.37 7.49 193.21 7.79Q193.06 8.09 192.91 8.47L192.91 8.47L192.91 15.17Q192.91 16.13 193.75 16.37L193.75 16.37L194.52 16.58L194.52 16.82ZM203.04 17.18L203.04 17.18Q201.86 17.18 200.93 16.91Q199.99 16.63 199.20 16.22L199.20 16.22L199.22 13.37L199.46 13.37L200.28 14.81Q200.81 15.77 201.44 16.24Q202.08 16.70 203.06 16.70L203.06 16.70Q204.22 16.70 204.92 16.19Q205.63 15.67 205.63 14.81L205.63 14.81Q205.63 14.02 205.13 13.51Q204.62 13.01 203.26 12.60L203.26 12.60L202.25 12.29Q200.78 11.86 199.94 10.94Q199.10 10.03 199.10 8.71L199.10 8.71Q199.10 7.13 200.35 6.02Q201.60 4.92 203.93 4.92L203.93 4.92Q204.86 4.92 205.69 5.12Q206.52 5.33 207.29 5.74L207.29 5.74L207.14 8.33L206.90 8.33L206.06 6.84Q205.61 6.05 205.16 5.72Q204.72 5.40 203.83 5.40L203.83 5.40Q203.02 5.40 202.30 5.86Q201.58 6.31 201.58 7.15L201.58 7.15Q201.58 7.97 202.19 8.45Q202.80 8.93 204.00 9.34L204.00 9.34L205.08 9.65Q206.81 10.18 207.55 11.10Q208.30 12.02 208.30 13.32L208.30 13.32Q208.30 15.07 206.92 16.13Q205.54 17.18 203.04 17.18Z" transform="translate(36, 9.588)"></path></svg>